<svg id="Layer_1" xmlns="http://www.w3.org/2000/svg" width="1019.4" height="965.4" viewBox="-556.4 -326 1019.4 965.4"><style>.st0{opacity:.2}.st1{fill:#fff}</style><g class="st0"><path id="SVGCleanerId_0" class="st1" d="M-324.9-52.7c0 9.9-8 17.9-17.9 17.9-9.9 0-18-8-18-17.9 0-9.9 8-18 18-18 9.8 0 17.9 8.1 17.9 18z"/><path class="st1" d="M-272.5 19c7.4 7.4 7.4 19.5 0 26.9-3.7 3.7-8.6 5.6-13.4 5.6-4.9 0-9.7-1.9-13.4-5.6l-6.6-6.6c-7.4-7.4-7.4-19.5 0-26.9 7.4-7.4 19.5-7.4 26.9 0l6.5 6.6zM-252.2 45.9c-7.4-7.4-7.4-19.5 0-26.9l6.6-6.6c7.4-7.4 19.5-7.4 26.9 0 7.4 7.4 7.4 19.5 0 26.9l-6.6 6.6c-3.7 3.7-8.6 5.6-13.5 5.6-4.8-.1-9.7-1.9-13.4-5.6zM-199.7-52.7c0-9.9 8-18 18-18 9.9 0 17.9 8 17.9 18 0 9.9-8 17.9-17.9 17.9-10 0-18-8-18-17.9z"/><path class="st1" d="M220.3 218.9c-16.8-31.5-41-62.2-72-91-24.4-22.9-52.1-43.7-82.4-61.8-10-6-23-2.7-29 7.2-6 10-2.8 23 7.2 29 27.7 16.6 53.1 35.6 75.3 56.4 27.1 25.3 49.1 53 63.5 80.1 3.8 7.1 11.1 11.2 18.7 11.2 3.4 0 6.8-.8 9.9-2.5 10.4-5.5 14.3-18.3 8.8-28.6zm0 0c-16.8-31.5-41-62.2-72-91-24.4-22.9-52.1-43.7-82.4-61.8-10-6-23-2.7-29 7.2-6 10-2.8 23 7.2 29 27.7 16.6 53.1 35.6 75.3 56.4 27.1 25.3 49.1 53 63.5 80.1 3.8 7.1 11.1 11.2 18.7 11.2 3.4 0 6.8-.8 9.9-2.5 10.4-5.5 14.3-18.3 8.8-28.6zm0 0c-16.8-31.5-41-62.2-72-91-24.4-22.9-52.1-43.7-82.4-61.8-10-6-23-2.7-29 7.2-6 10-2.8 23 7.2 29 27.7 16.6 53.1 35.6 75.3 56.4 27.1 25.3 49.1 53 63.5 80.1 3.8 7.1 11.1 11.2 18.7 11.2 3.4 0 6.8-.8 9.9-2.5 10.4-5.5 14.3-18.3 8.8-28.6zm0 0c-16.8-31.5-41-62.2-72-91-24.4-22.9-52.1-43.7-82.4-61.8-10-6-23-2.7-29 7.2-6 10-2.8 23 7.2 29 27.7 16.6 53.1 35.6 75.3 56.4 27.1 25.3 49.1 53 63.5 80.1 3.8 7.1 11.1 11.2 18.7 11.2 3.4 0 6.8-.8 9.9-2.5 10.4-5.5 14.3-18.3 8.8-28.6zm101.5-520.3c-77.9 0-141.2 63.4-141.2 141.2v185C160.6 9 139.3-5.7 117-19.1 85.5-38 53-53.7 20-66.1c7.7-15.5 11.8-32.7 11.8-50.3 0-62.3-50.7-112.9-112.9-112.9-2.9 0-5.6.1-8.4.3-36.6-60.2-101.5-97-172.8-97-71.3 0-136.2 36.8-172.8 97-2.7-.2-5.5-.3-8.3-.3-62.3 0-112.9 50.7-112.9 112.9 0 62.3 50.7 112.9 112.9 112.9 6 0 11.9-.5 17.6-1.4.1.1.1.2.2.3 1.9 52.1 29 100.6 72.2 129.7 9 43.3 30.7 88.6 63 131.8v242.2c0 22.7 8.9 44.1 24.9 60.2 9.6 9.6 21.4 16.7 34.2 20.8 11 34.3 43.2 59.2 81.1 59.2 46.9 0 85.1-38.2 85.1-85.1V431.6c14 6.2 28.1 11.7 42.3 16.6-13.4 14.1-21.7 33.1-21.7 54s8.1 40.6 22.9 55.4c10.6 10.6 23.7 17.7 38 21 3.2 14.3 10.4 27.4 21 38 14.8 14.8 34.5 22.9 55.4 22.9h137c61.1 0 110.8-49.7 110.8-110.5L343 2.9c11.6 6.4 24.8 10 38.9 10 44.8 0 81.2-36.4 81.2-81.2v-91.8c-.1-78-63.5-141.3-141.3-141.3zm-836 185.1c0-35.1 25.8-64.4 59.4-69.8-6.5 20.1-9.9 41.3-9.9 62.4 0 26.9 5.4 53.3 15.7 77.8-36.4-2.8-65.2-33.3-65.2-70.4zm444.3-69.8c33.7 5.4 59.4 34.6 59.4 69.8 0 17.5-6.4 34.2-18 47.2a70.695 70.695 0 0 1-47.2 23.3c2.8-6.7 5.3-13.6 7.4-20.7 5.5-18.5 8.3-37.7 8.3-57.1-.1-21.3-3.4-42.4-9.9-62.5zm-192.4-97.7c57.1 0 109.1 29.9 137.9 78.7-29.7 47.4-81.5 76.4-137.8 76.4-56.4 0-108.3-29-137.9-76.4 28.6-48.7 80.6-78.7 137.8-78.7zM-383.5-10c0-.6.1-1.1.1-1.7 0-4.8-1.6-9.4-4.5-13.1-3.8-4.8-7.3-9.8-10.5-15.1-15.6-25.2-23.9-54.2-23.9-83.9 0-11.9 1.3-23.6 3.8-35 38.5 45.4 95.3 72.3 156.3 72.3 60.9 0 117.7-27 156.2-72.4 2.5 11.4 3.8 23.1 3.8 35 0 15.4-2.2 30.6-6.5 45.2-5.7 19.5-15.1 37.6-27.9 53.7-2.9 3.7-4.5 8.3-4.5 13.1 0 .6 0 1.2.1 1.9-.3 66.5-54.6 120.6-121.2 120.6-21.7 0-42.9-5.8-61.4-16.7-36.9-21.5-59.8-61.3-59.9-103.9zm148.1 539.8l-.3-.3c-8.1-8.1-12.6-18.8-12.6-30.3V306.1c4.2 4.3 8.5 8.5 12.9 12.7v211zM18.9 535c-3.9-1.8-7.5-4.2-10.6-7.3-6.8-6.8-10.5-15.8-10.5-25.5 0-19.9 16.2-36 36-36H42c16.9 3.5 51.4 7.6 52 7.6h.3c2.6 3.1 5.4 6.2 8.3 9.1h-9.9c-34.2 0-63.1 21.6-73.8 52.1zm279.3-6.3c0 37.8-30.7 68.5-68.5 68.5h-137c-9.6 0-18.7-3.7-25.5-10.6-6.8-6.8-10.5-15.8-10.5-25.5v-1.2c.6-19.5 16.4-34.9 36-34.9h111.4c11.7 0 21.1-9.5 21.1-21.1 0-11.7-9.5-21.1-21.1-21.1-55.9 0-101.3-45.5-101.3-101.3 0-11.7-9.5-21.1-21.1-21.1-11.7 0-21.1 9.5-21.1 21.1 0 14.8 2.2 29 6.4 42.4H46.3c-36.9-8-74.6-21.1-111.4-38.8V302c0-11.7-9.5-21.1-21.1-21.1-11.7 0-21.1 9.4-21.1 21.1v252.4c0 23.6-19.2 42.9-42.9 42.9-23.6 0-42.9-19.2-42.9-42.9V263.2c0-11.7-9.5-21.1-21.1-21.1-10.1 0-18.5 7.1-20.6 16.5-6.3-7.1-12.2-14.3-17.8-21.5-22.8-29.4-39.9-59.7-50.6-89.2 13.3 3.4 27 5.2 40.9 5.2C-174.2 153-102.1 82.9-99-4.5c.1-.1.1-.2.2-.3 5.7.9 11.6 1.4 17.7 1.4 27.3 0 53.5-9.9 73.9-27.5C27.6-18.9 62-2.8 95.3 17.2c33.7 20.2 64.6 43.4 92 69 68.8 64.3 110.6 140.2 113.2 204.8l-2.3 237.7zM420.8-68.4c0 21.5-17.5 38.9-38.9 38.9S343-47 343-68.4v-91.9c0-11.7-9.4-21.1-21.1-21.1-11.7 0-21.1 9.5-21.1 21.1v319c-19.7-33.4-45.9-66.3-77.8-97.1v-221.8c0-54.6 44.4-99 99-99s99 44.4 99 99v91.8zM148.3 127.8C123.9 105 96.2 84.2 65.9 66.1c-10-6-23-2.7-29 7.2-6 10-2.8 23 7.2 29 27.7 16.6 53.1 35.6 75.3 56.4 27.1 25.3 49.1 53 63.5 80.1 3.8 7.1 11.1 11.2 18.7 11.2 3.4 0 6.8-.8 9.9-2.5 10.3-5.5 14.2-18.3 8.7-28.6-16.7-31.6-40.9-62.2-71.9-91.1zm72 91.1c-16.8-31.5-41-62.2-72-91-24.4-22.9-52.1-43.7-82.4-61.8-10-6-23-2.7-29 7.2-6 10-2.8 23 7.2 29 27.7 16.6 53.1 35.6 75.3 56.4 27.1 25.3 49.1 53 63.5 80.1 3.8 7.1 11.1 11.2 18.7 11.2 3.4 0 6.8-.8 9.9-2.5 10.4-5.5 14.3-18.3 8.8-28.6zm0 0c-16.8-31.5-41-62.2-72-91-24.4-22.9-52.1-43.7-82.4-61.8-10-6-23-2.7-29 7.2-6 10-2.8 23 7.2 29 27.7 16.6 53.1 35.6 75.3 56.4 27.1 25.3 49.1 53 63.5 80.1 3.8 7.1 11.1 11.2 18.7 11.2 3.4 0 6.8-.8 9.9-2.5 10.4-5.5 14.3-18.3 8.8-28.6z"/><path id="SVGCleanerId_0_1_" class="st1" d="M-324.9-52.7c0 9.9-8 17.9-17.9 17.9-9.9 0-18-8-18-17.9 0-9.9 8-18 18-18 9.8 0 17.9 8.1 17.9 18z"/><path class="st1" d="M-272.5 19c7.4 7.4 7.4 19.5 0 26.9-3.7 3.7-8.6 5.6-13.4 5.6-4.9 0-9.7-1.9-13.4-5.6l-6.6-6.6c-7.4-7.4-7.4-19.5 0-26.9 7.4-7.4 19.5-7.4 26.9 0l6.5 6.6zM-218.7 12.4c7.4 7.4 7.4 19.5 0 26.9l-6.6 6.6c-3.7 3.7-8.6 5.6-13.5 5.6s-9.7-1.9-13.4-5.6c-7.4-7.4-7.4-19.5 0-26.9l6.6-6.6c7.4-7.4 19.4-7.4 26.9 0z"/><path id="SVGCleanerId_1" class="st1" d="M-163.8-52.7c0 9.9-8 17.9-17.9 17.9-9.9 0-18-8-18-17.9 0-9.9 8-18 18-18 9.8 0 17.9 8.1 17.9 18z"/><path id="SVGCleanerId_2" class="st1" d="M211.6 247.4c-3.2 1.7-6.6 2.5-9.9 2.5-7.5 0-14.9-4.1-18.7-11.2-14.4-27-36.4-54.7-63.5-80.1-22.3-20.8-47.6-39.8-75.3-56.4-10-6-13.2-19-7.2-29 6-10 19-13.2 29-7.2 30.2 18.1 58 38.9 82.4 61.8 30.9 28.9 55.1 59.5 72 91 5.4 10.4 1.5 23.2-8.8 28.6z"/><path id="SVGCleanerId_0_2_" class="st1" d="M-324.9-52.7c0 9.9-8 17.9-17.9 17.9-9.9 0-18-8-18-17.9 0-9.9 8-18 18-18 9.8 0 17.9 8.1 17.9 18z"/><path id="SVGCleanerId_1_1_" class="st1" d="M-163.8-52.7c0 9.9-8 17.9-17.9 17.9-9.9 0-18-8-18-17.9 0-9.9 8-18 18-18 9.8 0 17.9 8.1 17.9 18z"/><path class="st1" d="M-272.5 45.9c-3.7 3.7-8.6 5.6-13.4 5.6-4.9 0-9.7-1.9-13.4-5.6l-6.6-6.6c-7.4-7.4-7.4-19.5 0-26.9 7.4-7.4 19.5-7.4 26.9 0l6.6 6.6c7.4 7.4 7.4 19.4-.1 26.9zM-218.7 39.3l-6.6 6.6c-3.7 3.7-8.6 5.6-13.5 5.6s-9.7-1.9-13.4-5.6c-7.4-7.4-7.4-19.5 0-26.9l6.6-6.6c7.4-7.4 19.5-7.4 26.9 0 7.4 7.4 7.4 19.5 0 26.9z"/><path id="SVGCleanerId_2_1_" class="st1" d="M211.6 247.4c-3.2 1.7-6.6 2.5-9.9 2.5-7.5 0-14.9-4.1-18.7-11.2-14.4-27-36.4-54.7-63.5-80.1-22.3-20.8-47.6-39.8-75.3-56.4-10-6-13.2-19-7.2-29 6-10 19-13.2 29-7.2 30.2 18.1 58 38.9 82.4 61.8 30.9 28.9 55.1 59.5 72 91 5.4 10.4 1.5 23.2-8.8 28.6z"/></g></svg>